<mxfile host="app.diagrams.net" modified="2024-01-18T18:17:11.132Z" agent="Mozilla/5.0 (Windows NT 10.0; Win64; x64; rv:121.0) Gecko/20100101 Firefox/121.0" version="22.1.21" etag="eevlRcJO45XyAtkc8h3V" type="github">
  <diagram name="PÃ¡gina-1" id="hJ5qM7yucAY7dMEIWsaq">
    <mxGraphModel>
      <root>
        <mxCell id="0" />
        <mxCell id="1" parent="0" />
      </root>
    </mxGraphModel>
  </diagram>
</mxfile>
